<?xml version="1.0" standalone="no"?>
<!DOCTYPE svg PUBLIC "-//W3C//DTD SVG 20010904//EN"
 "http://www.w3.org/TR/2001/REC-SVG-20010904/DTD/svg10.dtd">
<svg version="1.0" xmlns="http://www.w3.org/2000/svg"
 width="740.000000pt" height="740.000000pt" viewBox="0 0 740.000000 740.000000"
 preserveAspectRatio="xMidYMid meet">
<metadata>
Created by potrace 1.14, written by Peter Selinger 2001-2017
</metadata>
<g transform="translate(0.000000,740.000000) scale(0.100000,-0.100000)"
fill="#000000" stroke="none">
<path d="M0 3700 l0 -3700 3700 0 3700 0 0 3700 0 3700 -3700 0 -3700 0 0
-3700z m4155 2208 c1 -2 28 -55 60 -117 51 -104 57 -120 52 -164 -2 -27 -13
-61 -26 -77 -21 -29 -21 -37 -21 -383 0 -287 -3 -357 -14 -366 -9 -8 -178 -10
-612 -9 l-599 3 -5 360 c-5 351 -6 361 -27 395 -12 19 -25 53 -29 77 -5 38 0
54 51 155 32 62 61 118 65 123 7 9 1097 12 1105 3z m-1420 -1594 c18 -8 42
-25 53 -37 l21 -22 -39 -77 c-74 -149 -187 -534 -229 -789 -26 -155 -29 -314
-6 -358 37 -73 136 -15 233 137 40 62 72 165 72 230 0 37 36 63 94 69 33 4 45
1 60 -16 19 -20 19 -27 7 -98 -7 -42 -15 -83 -19 -92 -3 -9 20 14 52 51 104
121 210 187 301 188 69 0 114 -25 142 -79 37 -72 32 -132 -26 -293 -29 -81
-28 -125 4 -140 63 -29 167 67 242 222 59 123 113 198 208 288 125 119 284
179 364 137 27 -14 32 -21 29 -48 l-3 -32 -61 3 c-110 7 -212 -62 -306 -205
-46 -72 -98 -211 -98 -266 0 -51 37 -90 77 -81 76 18 159 95 245 225 74 111
94 154 194 402 179 442 277 635 346 677 42 25 53 25 79 -1 33 -33 20 -77 -97
-322 -235 -490 -292 -643 -315 -840 -14 -119 -6 -147 41 -147 43 0 84 24 147
83 68 64 86 94 119 197 32 103 83 207 117 238 l25 24 46 -21 c26 -11 49 -26
51 -33 3 -8 -13 -53 -35 -101 -70 -150 -94 -281 -59 -324 27 -32 112 0 170 64
79 88 118 149 130 203 21 99 55 140 115 140 57 0 62 -6 53 -58 -12 -65 -72
-279 -108 -384 l-30 -88 42 21 c105 53 186 136 243 248 22 46 28 51 40 39 27
-27 -22 -125 -110 -217 -49 -52 -177 -144 -217 -156 -12 -4 -37 -43 -68 -108
-82 -171 -182 -306 -251 -342 -103 -52 -220 -1 -220 96 0 112 114 224 323 319
37 16 67 32 67 35 0 4 35 124 77 260 3 11 -27 -15 -67 -58 -86 -91 -129 -117
-200 -117 -71 0 -127 30 -149 80 l-17 39 -63 -63 c-83 -84 -155 -121 -238
-121 -110 0 -149 55 -140 200 l5 80 -21 -30 c-70 -97 -183 -202 -256 -237 -59
-28 -136 -29 -181 -1 -39 24 -70 70 -70 102 0 12 -3 21 -6 21 -4 0 -33 -24
-65 -54 -48 -45 -68 -57 -114 -66 -121 -25 -205 28 -205 127 0 21 12 76 25
122 42 144 30 201 -44 201 -49 -1 -108 -30 -155 -76 -50 -50 -168 -207 -226
-301 -24 -40 -50 -73 -58 -73 -20 0 -84 29 -104 47 -16 14 -20 13 -49 -11 -44
-37 -96 -57 -150 -58 -124 -1 -173 88 -171 312 1 58 6 130 11 160 6 35 5 57
-1 61 -5 4 -58 12 -116 19 -59 6 -116 14 -128 17 -19 4 -36 -25 -156 -264 -74
-147 -148 -301 -166 -340 -17 -40 -36 -73 -42 -73 -7 0 -28 16 -47 35 -35 35
-36 37 -30 102 4 56 15 86 76 207 39 77 99 187 134 242 l64 101 -81 7 c-45 3
-107 6 -138 6 -32 0 -58 4 -58 10 0 5 17 27 38 49 48 50 97 63 225 60 l101 -3
98 135 c201 275 394 499 492 571 45 32 65 34 111 12z m1361 -2141 c-23 -80
-106 -514 -104 -542 3 -33 6 -36 33 -35 17 0 37 2 45 5 9 2 15 -2 15 -11 0
-17 -79 -60 -111 -60 -41 0 -67 32 -67 82 l0 46 -36 -49 c-34 -46 -87 -79
-127 -79 -31 0 -76 32 -90 65 -18 44 -18 139 1 200 20 69 80 151 131 181 45
26 116 36 165 22 25 -7 26 -6 38 58 13 71 6 94 -29 94 -22 0 -30 9 -23 26 4
10 26 14 85 14 71 0 79 -2 74 -17z m-1129 -186 c17 -8 27 -7 35 1 19 19 50 15
44 -5 -20 -67 -67 -320 -64 -350 3 -35 5 -38 33 -37 17 0 36 2 44 5 27 8 21
-19 -9 -41 -44 -31 -99 -37 -129 -13 -19 16 -23 28 -23 68 l1 48 -35 -51 c-34
-48 -87 -82 -129 -82 -90 0 -133 140 -85 277 20 58 73 134 112 161 58 41 140
49 205 19z m546 -9 c23 -27 22 -85 -4 -203 -11 -53 -19 -114 -17 -138 l3 -42
43 2 c48 2 56 -15 18 -40 -64 -42 -129 -28 -147 32 -9 30 -6 58 15 161 14 69
26 137 26 151 0 56 -51 62 -109 14 -46 -40 -85 -129 -111 -258 l-24 -117 -38
0 c-21 0 -38 3 -38 8 -1 4 16 91 37 193 32 158 35 189 24 203 -7 9 -22 16 -32
16 -12 0 -19 7 -19 20 0 18 7 20 81 20 l81 0 -7 -32 c-4 -18 -9 -44 -12 -58
-5 -20 3 -15 41 27 66 73 145 90 189 41z m986 16 c21 -15 23 -23 19 -78 -5
-76 -57 -191 -152 -335 -125 -190 -194 -242 -323 -243 -67 0 -90 10 -80 36 4
11 21 15 66 15 74 -1 141 32 205 101 l44 47 -59 198 c-32 108 -64 204 -70 211
-6 8 -20 14 -30 14 -12 0 -19 7 -19 20 0 18 7 20 65 20 l64 0 20 -67 c19 -67
60 -214 78 -283 l9 -35 38 68 c40 71 76 172 76 212 0 13 -9 30 -21 39 -26 18
-21 47 11 63 32 16 31 16 59 -3z"/>
<path d="M3047 5785 c-20 -42 -37 -78 -37 -80 0 -3 56 -5 124 -5 110 0 125 2
130 18 3 9 10 37 16 62 6 25 13 53 16 63 5 15 -5 17 -103 17 l-109 0 -37 -75z"/>
<path d="M3337 5788 c-10 -40 -17 -76 -17 -80 0 -5 56 -8 125 -8 l125 0 0 80
0 80 -108 0 -108 0 -17 -72z"/>
<path d="M3630 5780 l0 -80 129 0 129 0 -20 80 -20 80 -109 0 -109 0 0 -80z"/>
<path d="M3910 5848 c0 -7 8 -43 17 -80 l17 -68 128 0 128 0 -40 80 -40 80
-105 0 c-77 0 -105 -3 -105 -12z"/>
<path d="M2990 5628 c0 -41 36 -85 84 -103 44 -17 48 -17 92 0 48 18 84 62 84
103 0 22 -2 22 -130 22 -128 0 -130 0 -130 -22z"/>
<path d="M3310 5629 c0 -40 38 -87 85 -104 38 -15 49 -16 87 -4 47 15 88 65
88 105 0 24 0 24 -130 24 -126 0 -130 -1 -130 -21z"/>
<path d="M3633 5620 c16 -76 89 -121 165 -100 45 12 88 57 94 100 l3 25 -134
3 -134 3 6 -31z"/>
<path d="M3954 5618 c8 -40 49 -84 92 -98 42 -14 102 1 131 32 25 27 46 76 37
89 -3 5 -64 9 -136 9 l-130 0 6 -32z"/>
<path d="M3905 5526 c-23 -34 -92 -66 -144 -66 -47 0 -93 20 -134 58 l-27 26
-33 -31 c-75 -73 -178 -71 -259 5 l-28 26 -27 -26 c-50 -46 -91 -61 -155 -55
l-58 5 2 -311 3 -312 345 0 345 0 5 240 5 240 144 3 c97 2 148 -1 157 -9 11
-9 14 -58 14 -245 l0 -234 50 0 50 0 0 315 0 314 -50 -6 c-62 -7 -129 16 -164
58 l-25 30 -16 -25z m-287 -208 c18 -18 17 -342 -2 -357 -9 -8 -81 -11 -237
-9 l-224 3 -3 179 c-2 137 1 181 10 188 22 13 442 10 456 -4z"/>
<path d="M3202 5138 l3 -133 183 -3 182 -2 0 135 0 135 -185 0 -186 0 3 -132z"/>
<path d="M3790 5055 l0 -215 105 0 105 0 0 215 0 215 -105 0 -105 0 0 -215z"/>
<path d="M2524 4098 c-122 -136 -375 -516 -351 -529 15 -8 209 -51 213 -47 1
2 14 48 28 104 32 126 106 358 145 452 17 40 26 72 21 72 -4 0 -30 -24 -56
-52z"/>
<path d="M4875 2740 c-134 -79 -195 -145 -195 -212 0 -75 60 -63 132 26 48 60
136 216 121 216 -4 0 -30 -14 -58 -30z"/>
<path d="M3839 1948 c-54 -36 -101 -141 -107 -237 -5 -90 6 -121 44 -121 66 0
121 81 159 236 l27 108 -22 18 c-30 24 -60 23 -101 -4z"/>
<path d="M2844 1956 c-68 -30 -124 -150 -124 -265 0 -53 4 -72 18 -84 73 -67
169 72 206 299 7 37 5 41 -19 52 -32 15 -42 15 -81 -2z"/>
</g>
</svg>
